<svg width="62" height="34" viewBox="0 0 62 34" fill="none" xmlns="http://www.w3.org/2000/svg">
<path d="M13.9873 14.5165C13.9873 13.7194 14.6335 13.0732 15.4305 13.0732H43.5735C44.3705 13.0732 45.0167 13.7194 45.0167 14.5165V29.4681C45.0167 29.9749 44.749 30.442 44.289 30.6549C42.5586 31.4556 37.7173 33.2784 29.502 33.2784C21.2866 33.2784 16.4454 31.4556 14.715 30.6549C14.255 30.442 13.9873 29.9749 13.9873 29.4681V14.5165Z" fill="#4D72EA"/>
<path d="M2.0137 9.09793C1.31421 8.89444 1.32257 7.90054 2.0254 7.70886L30.198 0.0254271C30.3202 -0.00790037 30.449 -0.00847588 30.5715 0.0237592L59.7687 7.70725C60.48 7.89442 60.4882 8.9011 59.7801 9.09986L30.5831 17.2955C30.4533 17.332 30.3159 17.3313 30.1865 17.2937L2.0137 9.09793Z" fill="#A0B6FF"/>
<path d="M1.40039 9L29.4796 18.381L59.8511 9" stroke="#294CBF" stroke-width="2.8" stroke-linecap="round"/>
<path d="M53.3535 11L53.3535 22" stroke="#294CBF" stroke-width="2.8" stroke-linecap="round"/>
<circle cx="53.3151" cy="23.5368" r="3.24726" fill="#294CBF"/>
<path d="M52.6444 24.1439C52.8854 23.5367 53.7448 23.5367 53.9858 24.1439L56.3601 30.1256C56.5482 30.5994 56.1991 31.1135 55.6894 31.1135H50.9407C50.431 31.1135 50.082 30.5994 50.27 30.1256L52.6444 24.1439Z" fill="#294CBF"/>
</svg>
