<svg width="20" height="22" viewBox="0 0 20 22" fill="none" xmlns="http://www.w3.org/2000/svg">
<path d="M10.8651 19.5C11.1413 19.0217 11.7531 18.8576 12.2313 19.1338C12.7095 19.4099 12.8735 20.0218 12.5976 20.5C12.3343 20.956 11.9549 21.3344 11.4989 21.5977C11.0429 21.8609 10.5255 22 9.99892 22C9.4724 22 8.95491 21.8609 8.49892 21.5977C8.04305 21.3344 7.66451 20.9559 7.40127 20.5C7.1251 20.0217 7.2892 19.41 7.76748 19.1338C8.24565 18.858 8.85658 19.022 9.13271 19.5C9.22048 19.652 9.34693 19.7785 9.49892 19.8662C9.65088 19.9539 9.82346 20 9.99892 20C10.1744 20 10.347 19.9539 10.4989 19.8662C10.6509 19.7785 10.7774 19.652 10.8651 19.5ZM14.9989 7C14.9989 5.67409 14.4725 4.40249 13.5351 3.46484C12.5974 2.52716 11.325 2 9.99892 2C8.67293 2.00007 7.40139 2.52722 6.46377 3.46484C5.52616 4.40251 4.99892 5.67398 4.99892 7C4.99892 9.35426 4.62992 10.9982 4.03213 12.2637C3.44166 13.5136 2.65812 14.3205 1.9999 15H17.9989C17.3393 14.3201 16.5569 13.5128 15.9667 12.2637C15.3687 10.998 14.9989 9.35414 14.9989 7ZM16.9989 7C16.9989 9.14469 17.3348 10.4789 17.7743 11.4092C18.1048 12.1086 18.512 12.6223 18.9755 13.125L19.4569 13.6309L19.4784 13.6543C19.7393 13.941 19.9114 14.2971 19.9735 14.6797C20.0356 15.0621 19.9856 15.4543 19.829 15.8086C19.6723 16.1629 19.4154 16.4644 19.0907 16.6758C18.8064 16.8608 18.4802 16.9708 18.1435 16.9951L17.9989 17H1.99892C1.6113 16.9997 1.23175 16.8866 0.907125 16.6748C0.582486 16.463 0.326196 16.1613 0.169821 15.8066C0.0134954 15.452 -0.0363227 15.0593 0.026266 14.6768C0.0888863 14.2944 0.26127 13.9386 0.52236 13.6523L0.542868 13.6299C1.20732 12.9439 1.78301 12.3417 2.22353 11.4092C2.66298 10.4789 2.99892 9.14472 2.99892 7C2.99892 5.14348 3.73695 3.36256 5.0497 2.0498C6.36237 0.737336 8.14267 6.51523e-05 9.99892 0C11.8554 0 13.6364 0.737127 14.9491 2.0498C16.2619 3.36256 16.9989 5.14349 16.9989 7Z" fill="#4A5662"/>
</svg>
