<svg width="37" height="34" viewBox="0 0 37 34" fill="none" xmlns="http://www.w3.org/2000/svg">
<mask id="path-1-inside-1_860_7627" fill="white">
<path d="M1.40771 25.0864H35.1855V32.1235C35.1855 33.1599 34.3454 34 33.309 34H3.28426C2.24787 34 1.40771 33.1599 1.40771 32.1235V25.0864Z"/>
</mask>
<path d="M1.40771 25.0864H35.1855V32.1235C35.1855 33.1599 34.3454 34 33.309 34H3.28426C2.24787 34 1.40771 33.1599 1.40771 32.1235V25.0864Z" fill="#949494" stroke="#949494" stroke-width="4" mask="url(#path-1-inside-1_860_7627)"/>
<mask id="path-2-inside-2_860_7627" fill="white">
<path d="M0 11.0128C0 9.97639 0.840158 9.13623 1.87655 9.13623H34.7161C35.7525 9.13623 36.5926 9.97639 36.5926 11.0128V25.0869C36.5926 26.1233 35.7525 26.9634 34.7161 26.9634H1.87654C0.840156 26.9634 0 26.1233 0 25.0869V11.0128Z"/>
</mask>
<path d="M0 11.0128C0 9.97639 0.840158 9.13623 1.87655 9.13623H34.7161C35.7525 9.13623 36.5926 9.97639 36.5926 11.0128V25.0869C36.5926 26.1233 35.7525 26.9634 34.7161 26.9634H1.87654C0.840156 26.9634 0 26.1233 0 25.0869V11.0128Z" fill="#2F2F2F" stroke="#2F2F2F" stroke-width="4" mask="url(#path-2-inside-2_860_7627)"/>
<line x1="8.9751" y1="28.7778" x2="27.6171" y2="28.7778" stroke="#929292" stroke-width="2" stroke-linecap="round"/>
<line x1="8.9751" y1="32.062" x2="27.6171" y2="32.062" stroke="#929292" stroke-width="2" stroke-linecap="round"/>
<mask id="path-5-inside-3_860_7627" fill="white">
<path d="M3.75293 8.38533C3.75293 7.34895 4.59309 6.50879 5.62948 6.50879H8.55196C9.58835 6.50879 10.4285 7.34895 10.4285 8.38533V9.13595C10.4285 10.1723 9.58835 11.0125 8.55196 11.0125H5.62947C4.59309 11.0125 3.75293 10.1723 3.75293 9.13595V8.38533Z"/>
</mask>
<path d="M3.75293 8.38533C3.75293 7.34895 4.59309 6.50879 5.62948 6.50879H8.55196C9.58835 6.50879 10.4285 7.34895 10.4285 8.38533V9.13595C10.4285 10.1723 9.58835 11.0125 8.55196 11.0125H5.62947C4.59309 11.0125 3.75293 10.1723 3.75293 9.13595V8.38533Z" fill="#2F2F2F" stroke="#2F2F2F" stroke-width="4" mask="url(#path-5-inside-3_860_7627)"/>
<mask id="path-6-inside-4_860_7627" fill="white">
<path d="M26.1641 8.38533C26.1641 7.34895 27.0042 6.50879 28.0406 6.50879H30.9631C31.9995 6.50879 32.8396 7.34895 32.8396 8.38533V9.13595C32.8396 10.1723 31.9995 11.0125 30.9631 11.0125H28.0406C27.0042 11.0125 26.1641 10.1723 26.1641 9.13595V8.38533Z"/>
</mask>
<path d="M26.1641 8.38533C26.1641 7.34895 27.0042 6.50879 28.0406 6.50879H30.9631C31.9995 6.50879 32.8396 7.34895 32.8396 8.38533V9.13595C32.8396 10.1723 31.9995 11.0125 30.9631 11.0125H28.0406C27.0042 11.0125 26.1641 10.1723 26.1641 9.13595V8.38533Z" fill="#2F2F2F" stroke="#2F2F2F" stroke-width="4" mask="url(#path-6-inside-4_860_7627)"/>
<mask id="path-7-inside-5_860_7627" fill="white">
<path d="M5.79639 1.5C5.79639 0.671573 6.46796 0 7.29639 0C8.12481 0 8.79639 0.671573 8.79639 1.5V7H5.79639V1.5Z"/>
</mask>
<path d="M5.79639 1.5C5.79639 0.671573 6.46796 0 7.29639 0C8.12481 0 8.79639 0.671573 8.79639 1.5V7H5.79639V1.5Z" fill="#1E1E1E"/>
<path d="M8.79639 7V11H12.7964V7H8.79639ZM5.79639 7H1.79639V11H5.79639V7ZM8.79639 1.5H4.79639V7H8.79639H12.7964V1.5H8.79639ZM8.79639 7V3H5.79639V7V11H8.79639V7ZM5.79639 7H9.79639V1.5H5.79639H1.79639V7H5.79639ZM7.29639 0V4C5.91567 4 4.79639 2.88071 4.79639 1.5H8.79639H12.7964C12.7964 -1.53757 10.334 -4 7.29639 -4V0ZM7.29639 0V-4C4.25882 -4 1.79639 -1.53757 1.79639 1.5H5.79639H9.79639C9.79639 2.88071 8.6771 4 7.29639 4V0Z" fill="#2F2F2F" mask="url(#path-7-inside-5_860_7627)"/>
<mask id="path-9-inside-6_860_7627" fill="white">
<path d="M7.29639 3C6.46796 3 5.79639 2.32843 5.79639 1.5C5.79639 0.671573 6.46796 0 7.29639 0L30.2964 0C31.1248 0 31.7964 0.671573 31.7964 1.5C31.7964 2.32843 31.1248 3 30.2964 3L7.29639 3Z"/>
</mask>
<path d="M7.29639 3C6.46796 3 5.79639 2.32843 5.79639 1.5C5.79639 0.671573 6.46796 0 7.29639 0L30.2964 0C31.1248 0 31.7964 0.671573 31.7964 1.5C31.7964 2.32843 31.1248 3 30.2964 3L7.29639 3Z" fill="#1E1E1E"/>
<path d="M7.29639 0V4L30.2964 4V0V-4L7.29639 -4L7.29639 0ZM30.2964 3V-1L7.29639 -1V3V7L30.2964 7V3ZM31.7964 1.5H27.7964C27.7964 0.119288 28.9157 -1 30.2964 -1V3V7C33.334 7 35.7964 4.53757 35.7964 1.5L31.7964 1.5ZM30.2964 0V4C28.9157 4 27.7964 2.88071 27.7964 1.5H31.7964L35.7964 1.5C35.7964 -1.53756 33.334 -4 30.2964 -4V0ZM5.79639 1.5L9.79639 1.5C9.79639 2.88071 8.6771 4 7.29639 4V0L7.29639 -4C4.25882 -4 1.79639 -1.53757 1.79639 1.5L5.79639 1.5ZM5.79639 1.5L1.79639 1.5C1.79639 4.53756 4.25882 7 7.29639 7V3V-1C8.6771 -1 9.79639 0.11929 9.79639 1.5L5.79639 1.5Z" fill="#2F2F2F" mask="url(#path-9-inside-6_860_7627)"/>
<path d="M30.2964 1C30.5725 1 30.7964 1.22386 30.7964 1.5V6H29.7964V1.5C29.7964 1.22386 30.0202 1 30.2964 1Z" fill="#1E1E1E" stroke="#2F2F2F" stroke-width="1.5"/>
<mask id="path-12-inside-7_860_7627" fill="white">
<path d="M13.1357 24.1485C13.1357 23.1121 13.9759 22.272 15.0123 22.272H21.5802C22.6166 22.272 23.4567 23.1121 23.4567 24.1485V26.9633C23.4567 27.9997 22.6166 28.8399 21.5802 28.8399H15.0123C13.9759 28.8399 13.1357 27.9997 13.1357 26.9633V24.1485Z"/>
</mask>
<path d="M13.1357 24.1485C13.1357 23.1121 13.9759 22.272 15.0123 22.272H21.5802C22.6166 22.272 23.4567 23.1121 23.4567 24.1485V26.9633C23.4567 27.9997 22.6166 28.8399 21.5802 28.8399H15.0123C13.9759 28.8399 13.1357 27.9997 13.1357 26.9633V24.1485Z" fill="white" stroke="#1E1E1E" stroke-width="4" mask="url(#path-12-inside-7_860_7627)"/>
</svg>
