<svg width="72" height="34" viewBox="0 0 72 34" fill="none" xmlns="http://www.w3.org/2000/svg">
<circle cx="54.877" cy="17.2984" r="15.6393" fill="#FFB30E" stroke="#FFB30E" stroke-width="2.125"/>
<path d="M57.2632 23.2632C56.4679 24.1579 54.2807 25.4106 51.8948 23.2632" stroke="#E97500" stroke-width="2.125" stroke-linecap="round"/>
<circle cx="16.7018" cy="16.7018" r="15.6393" fill="#FFB30E" stroke="#FFB30E" stroke-width="2.125"/>
<circle cx="36.9825" cy="16.7018" r="15.6393" fill="#FFD77B" stroke="#FFD77B" stroke-width="2.125"/>
<path d="M28.6318 17.2983V20.2808" stroke="#1E1E1E" stroke-width="2.125" stroke-linecap="round"/>
<path d="M45.9297 17.2983V20.2808" stroke="#1E1E1E" stroke-width="2.125" stroke-linecap="round"/>
<path d="M38.7135 21.4736H36.057C35.6396 21.4736 35.3547 21.8902 35.532 22.2681C36.0267 23.323 36.8319 24.6761 37.6602 25.0065C38.5701 25.3694 39.0812 23.5142 39.2889 22.123C39.3407 21.7755 39.0648 21.4736 38.7135 21.4736Z" fill="#1E1E1E" stroke="#1E1E1E" stroke-width="2.125" stroke-linecap="round"/>
<path d="M8.64893 17.5967V19.9826" stroke="#E97500" stroke-width="2.125" stroke-linecap="round"/>
<path d="M14.0176 21.1758C14.8129 22.0705 17 23.3231 19.386 21.1758" stroke="#E97500" stroke-width="2.125" stroke-linecap="round"/>
<path d="M65.0176 19.6768C64.2223 18.782 62.0351 17.5294 59.6492 19.6768" stroke="#E97500" stroke-width="2.125" stroke-linecap="round"/>
</svg>
