<svg width="24" height="20" viewBox="0 0 24 20" fill="none" xmlns="http://www.w3.org/2000/svg">
<path d="M14.6992 0.193832C16.0464 -0.134024 17.4617 -0.0445869 18.7564 0.451641C20.051 0.947885 21.1637 1.82691 21.9466 2.97119C22.7288 4.11439 23.1448 5.46867 23.1391 6.85373L23.134 7.12181C23.021 9.87008 21.1898 11.868 19.6757 13.3822C19.6716 13.3862 19.6674 13.3905 19.6633 13.3945L13.9022 18.9666C13.6166 19.2806 13.2715 19.5351 12.8853 19.7123C12.4785 19.8991 12.0367 19.9971 11.5891 19.9999C11.1414 20.0028 10.6979 19.9104 10.2887 19.7288C9.89363 19.5534 9.53963 19.298 9.24723 18.98L3.4758 13.3935C3.4718 13.3896 3.46741 13.3861 3.46347 13.3822C1.90147 11.8202 0.000205936 9.75188 0 6.85373C2.53898e-05 5.47051 0.420026 4.11914 1.20379 2.9794C1.98754 1.83984 3.09849 0.965129 4.38994 0.470129C5.68155 -0.024911 7.0931 -0.116744 8.43785 0.207185C9.61706 0.491296 10.6963 1.08316 11.5675 1.91838C12.4371 1.07746 13.5179 0.481374 14.6992 0.193832ZM2.10356 6.85373C2.10376 8.79318 3.35777 10.3008 4.95076 11.8938L10.7314 17.4907L10.7848 17.5451C10.8842 17.6563 11.006 17.7455 11.1423 17.806C11.2786 17.8665 11.4265 17.8973 11.5757 17.8964C11.7249 17.8954 11.8725 17.8631 12.0082 17.8009C12.1437 17.7386 12.2646 17.6483 12.3625 17.5359L12.4241 17.4701L18.1884 11.8938L18.7677 11.3002C20.0746 9.91634 21.0354 8.54224 21.0356 6.85373V6.84859C21.0401 5.88938 20.7524 4.95128 20.2108 4.15957C19.6692 3.36791 18.8991 2.7599 18.0035 2.41654C17.1078 2.07323 16.1284 2.00996 15.1964 2.23679C14.2643 2.46366 13.4235 2.96953 12.7857 3.68607C12.7799 3.69253 12.7741 3.69927 12.7682 3.70558C12.6148 3.86968 12.4289 4.00028 12.2228 4.08973C12.0167 4.17918 11.7943 4.22531 11.5696 4.22531C11.3449 4.22531 11.1224 4.17918 10.9163 4.08973C10.7102 4.00028 10.5244 3.86968 10.3709 3.70558C10.3663 3.70062 10.3621 3.69523 10.3576 3.69018C9.7175 2.97788 8.87582 2.47645 7.94483 2.2522C7.0139 2.02796 6.03697 2.09132 5.14283 2.434C4.24864 2.77672 3.47917 3.38285 2.93656 4.1719C2.39409 4.96088 2.10358 5.89624 2.10356 6.85373Z" fill="#4A5662"/>
</svg>
