<svg width="20" height="20" viewBox="0 0 20 20" fill="none" xmlns="http://www.w3.org/2000/svg">
<path d="M9.99966 1.6665V0.833171H9.99962L9.99966 1.6665ZM15.8336 7.49951H16.667V7.49947L15.8336 7.49951ZM10.3317 14.8364L10.7154 15.5762L10.7154 15.5762L10.3317 14.8364ZM9.66861 14.8364L9.28491 15.5762L9.28517 15.5763L9.66861 14.8364ZM4.16666 7.49951L3.33332 7.49947V7.49951H4.16666ZM9.99966 5.00049V4.16716H9.99955L9.99966 5.00049ZM7.49966 7.50049H6.66633V7.50065L7.49966 7.50049ZM9.99966 10.0005L9.99956 10.8338H9.99966V10.0005ZM12.4997 7.50049L13.333 7.50065V7.50049H12.4997ZM9.99966 1.6665V2.49984C12.7611 2.49984 15.0002 4.73838 15.0003 7.49956L15.8336 7.49951L16.667 7.49947C16.6668 3.81762 13.6813 0.833171 9.99966 0.833171V1.6665ZM15.8336 7.49951H15.0003C15.0003 9.28764 14.0902 10.7628 12.9543 11.9085C11.8192 13.0534 10.5285 13.7956 9.948 14.0967L10.3317 14.8364L10.7154 15.5762C11.3707 15.2363 12.8309 14.4002 14.1379 13.0819C15.4441 11.7644 16.667 9.89164 16.667 7.49951H15.8336ZM10.3317 14.8364L9.948 14.0967C9.95958 14.0907 9.97789 14.085 10.0002 14.085C10.0226 14.085 10.0407 14.0907 10.0521 14.0965L9.66861 14.8364L9.28517 15.5763C9.73608 15.81 10.264 15.8103 10.7154 15.5762L10.3317 14.8364ZM9.66861 14.8364L10.0523 14.0967C9.47182 13.7956 8.18108 13.0534 7.046 11.9085C5.91014 10.7628 4.99999 9.28765 4.99999 7.49951H4.16666H3.33332C3.33332 9.89165 4.55626 11.7645 5.86243 13.0819C7.16938 14.4002 8.62962 15.2363 9.28491 15.5762L9.66861 14.8364ZM4.16666 7.49951L4.99999 7.49956C5.00014 4.73836 7.23851 2.49999 9.99971 2.49984L9.99966 1.6665L9.99962 0.833171C6.31801 0.833372 3.33352 3.81786 3.33332 7.49947L4.16666 7.49951ZM9.99966 5.00049L9.99955 4.16716C8.15895 4.1674 6.66633 5.65954 6.66633 7.50049H7.49966H8.333C8.333 6.58023 9.07926 5.83394 9.99977 5.83382L9.99966 5.00049ZM7.49966 7.50049L6.66633 7.50065C6.66668 9.34109 8.15896 10.8336 9.99956 10.8338L9.99966 10.0005L9.99977 9.16715C9.07958 9.16703 8.33317 8.42064 8.333 7.50033L7.49966 7.50049ZM9.99966 10.0005V10.8338C11.8406 10.8338 13.3326 9.34109 13.333 7.50065L12.4997 7.50049L11.6663 7.50033C11.6662 8.42086 10.9198 9.16715 9.99966 9.16715V10.0005ZM12.4997 7.50049H13.333C13.333 5.65954 11.8406 4.16716 9.99966 4.16716V5.00049V5.83382C10.9201 5.83382 11.6663 6.58001 11.6663 7.50049H12.4997Z" fill="#1E1E1E"/>
<path d="M16.4952 14.5835C17.1535 14.9635 17.5 15.3947 17.5 15.8335C17.5 16.2723 17.1535 16.7034 16.4952 17.0835C15.8369 17.4635 14.8901 17.7791 13.75 17.9986C12.6099 18.218 11.3165 18.3335 10 18.3335C8.68348 18.3335 7.39014 18.218 6.25 17.9986C5.10986 17.7791 4.16307 17.4635 3.50481 17.0835C2.84655 16.7034 2.5 16.2723 2.5 15.8335C2.5 15.3947 2.84655 14.9635 3.50481 14.5835" stroke="#1E1E1E" stroke-width="1.66667" stroke-linecap="round"/>
</svg>
