<svg width="62" height="40" viewBox="0 0 62 40" fill="none" xmlns="http://www.w3.org/2000/svg">
<path d="M39.3477 7.66504L58.8022 11.6901" stroke="#717171" stroke-width="2.8" stroke-linecap="round"/>
<path d="M36.0513 23.0827L39.3927 1.96656C39.4521 1.59149 39.8106 1.34041 40.1834 1.41289L59.5644 5.18142C59.9197 5.2505 60.1561 5.589 60.0987 5.94638L56.7516 26.7724" stroke="#717171" stroke-width="2.8" stroke-linecap="round"/>
<ellipse cx="7.98075" cy="5.85255" rx="7.98075" ry="5.85255" transform="matrix(0.989975 0.141243 -0.127193 0.991878 43.9604 18.7222)" fill="#FFD77B"/>
<path d="M51.7255 20.9052C53.7068 21.1878 55.3832 22.029 56.4981 23.109C57.6135 24.1895 58.1162 25.4454 57.9642 26.6313C57.8121 27.8172 57.0111 28.8871 55.6637 29.6163C54.3168 30.3451 52.4888 30.6862 50.5075 30.4036C48.5263 30.1208 46.8508 29.2798 45.7359 28.1998C44.6204 27.1193 44.1177 25.8635 44.2698 24.6775C44.4219 23.4915 45.2228 22.4217 46.5703 21.6926C47.9172 20.9638 49.7443 20.6226 51.7255 20.9052Z" fill="#717171" stroke="#717171" stroke-width="2.1282"/>
<path d="M31.6 16.8803C33.5813 17.1629 35.2577 18.0041 36.3726 19.0841C37.488 20.1646 37.9907 21.4205 37.8387 22.6064C37.6866 23.7923 36.8856 24.8622 35.5382 25.5914C34.1913 26.3202 32.3633 26.6613 30.382 26.3786C28.4008 26.0959 26.7253 25.2549 25.6104 24.1749C24.4949 23.0944 23.9923 21.8386 24.1443 20.6526C24.2964 19.4666 25.0973 18.3968 26.4448 17.6677C27.7917 16.9389 29.6189 16.5977 31.6 16.8803Z" fill="#717171" stroke="#717171" stroke-width="2.1282"/>
<path d="M13.0815 11.8519C9.30022 13.3443 3.25371 12.4616 0.941212 12.0388C0.481574 11.9547 0.0652749 12.3423 0.126037 12.8056L0.136012 12.8817C1.42762 22.7308 4.41157 45.4847 23.1441 37.6795C42.0317 29.8096 28.6214 14.2975 22.3175 5.22402C22.059 4.85193 21.5125 4.82936 21.2168 5.17261C19.854 6.75437 16.338 10.5667 13.0815 11.8519Z" fill="#FFD77B"/>
<path d="M22.759 28.7739C21.7244 32.0445 19.3097 31.9448 17.3247 31.3187C16.7911 31.1504 16.78 30.43 17.2894 30.1985L21.9323 28.088C22.4041 27.8736 22.9153 28.2797 22.759 28.7739Z" stroke="#1E1E1E" stroke-width="2.57604" stroke-linecap="round"/>
<path d="M24.9807 25.0803C24.7441 25.3111 24.3572 25.3087 24.1919 25.0225C24.1349 24.9236 24.0849 24.8206 24.0423 24.7142C23.9254 24.4219 23.8672 24.1094 23.8711 23.7946C23.875 23.4798 23.9408 23.1689 24.0648 22.8795C24.1889 22.5902 24.3687 22.3281 24.594 22.1083C24.8193 21.8884 25.0858 21.7151 25.3781 21.5982C25.6704 21.4813 25.9828 21.4231 26.2976 21.427C26.6124 21.4308 26.9234 21.4967 27.2127 21.6207C27.3181 21.6659 27.4198 21.7184 27.5172 21.7779C27.7993 21.9501 27.7923 22.337 27.5557 22.5678L27.4648 22.6566C27.2784 22.8384 26.9804 22.8234 26.7412 22.7208C26.5963 22.6587 26.4406 22.6257 26.2829 22.6238C26.1253 22.6218 25.9688 22.651 25.8225 22.7095C25.6761 22.768 25.5427 22.8548 25.4299 22.9649C25.3171 23.075 25.227 23.2062 25.1649 23.3511C25.1028 23.496 25.0698 23.6517 25.0679 23.8093C25.066 23.967 25.0951 24.1234 25.1536 24.2698C25.2503 24.5115 25.258 24.8098 25.0716 24.9916L24.9807 25.0803Z" fill="#1E1E1E"/>
<path d="M10.0678 30.4688C9.74278 30.5287 9.42277 30.3111 9.44503 29.9814C9.45271 29.8675 9.46853 29.7541 9.49248 29.642C9.55825 29.3341 9.68401 29.0422 9.86259 28.7829C10.0412 28.5237 10.2691 28.3021 10.5333 28.1309C10.7975 27.9597 11.0928 27.8423 11.4024 27.7852C11.712 27.7282 12.0298 27.7326 12.3377 27.7984C12.6455 27.8642 12.9374 27.9899 13.1967 28.1685C13.456 28.3471 13.6775 28.575 13.8487 28.8392C13.9111 28.9354 13.9663 29.0357 14.014 29.1394C14.1524 29.4395 13.9309 29.7569 13.6059 29.8168L13.481 29.8398C13.2249 29.887 12.9858 29.7085 12.8443 29.49C12.7585 29.3578 12.6476 29.2436 12.5178 29.1542C12.388 29.0648 12.2418 29.0018 12.0876 28.9689C11.9335 28.936 11.7743 28.9337 11.6193 28.9623C11.4643 28.9909 11.3164 29.0497 11.1841 29.1354C11.0518 29.2211 10.9377 29.3321 10.8483 29.4619C10.7589 29.5917 10.6959 29.7379 10.663 29.892C10.6086 30.1466 10.4488 30.3986 10.1928 30.4458L10.0678 30.4688Z" fill="#1E1E1E"/>
</svg>
