<svg width="16" height="14" viewBox="0 0 16 14" fill="none" xmlns="http://www.w3.org/2000/svg">
<path d="M6.59615 13.125V7.875H0.942308C0.421886 7.875 0 7.48325 0 7C0 6.51675 0.421886 6.125 0.942308 6.125H6.59615V0.875C6.59615 0.391751 7.01804 0 7.53846 0C8.05888 0 8.48077 0.391751 8.48077 0.875V6.125H14.1346C14.655 6.125 15.0769 6.51675 15.0769 7C15.0769 7.48325 14.655 7.875 14.1346 7.875H8.48077V13.125C8.48077 13.6082 8.05888 14 7.53846 14C7.01804 14 6.59615 13.6082 6.59615 13.125Z" fill="#4A5662"/>
</svg>
