<svg width="15" height="16" viewBox="0 0 15 16" fill="none" xmlns="http://www.w3.org/2000/svg">
<path d="M13.5 13.0909C13.5 12.2876 12.8284 11.6364 12 11.6364C11.4785 11.6364 11.0193 11.8946 10.7505 12.2862C10.7393 12.3107 10.7273 12.335 10.7131 12.3587C10.6988 12.3825 10.6828 12.4052 10.6663 12.4268C10.5606 12.626 10.5 12.8515 10.5 13.0909C10.5 13.8942 11.1716 14.5455 12 14.5455C12.8284 14.5455 13.5 13.8942 13.5 13.0909ZM4.5 8C4.5 7.19668 3.82843 6.54545 3 6.54545C2.17157 6.54545 1.5 7.19668 1.5 8C1.5 8.80332 2.17157 9.45455 3 9.45455C3.82843 9.45455 4.5 8.80332 4.5 8ZM13.5 2.90909C13.5 2.10577 12.8284 1.45455 12 1.45455C11.1716 1.45455 10.5 2.10577 10.5 2.90909C10.5 3.71241 11.1716 4.36364 12 4.36364C12.8284 4.36364 13.5 3.71241 13.5 2.90909ZM15 2.90909C15 4.51574 13.6569 5.81818 12 5.81818C11.1664 5.81818 10.4123 5.48826 9.86865 4.95597L5.88647 7.20881C5.95968 7.46046 6 7.72564 6 8C6 8.27389 5.95944 8.53851 5.88647 8.78977L9.87085 11.0412C10.4143 10.5104 11.1677 10.1818 12 10.1818C13.6569 10.1818 15 11.4843 15 13.0909C15 14.6976 13.6569 16 12 16C10.3431 16 9 14.6976 9 13.0909C9 12.8156 9.03982 12.5493 9.11353 12.2969L5.13062 10.0462C4.58693 10.5785 3.83365 10.9091 3 10.9091C1.34315 10.9091 0 9.60665 0 8C0 6.39335 1.34315 5.09091 3 5.09091C3.83327 5.09091 4.58699 5.42054 5.13062 5.95241L9.11279 3.69957C9.03974 3.44817 9 3.18315 9 2.90909C9 1.30244 10.3431 0 12 0C13.6569 0 15 1.30244 15 2.90909Z" fill="black"/>
</svg>
