<svg width="40" height="36" viewBox="0 0 40 36" fill="none" xmlns="http://www.w3.org/2000/svg">
<path d="M0 5.0769C0 2.273 2.27301 0 5.07691 0H34.1537C36.9576 0 39.2306 2.27301 39.2306 5.07691V23.9999C39.2306 26.8038 36.9576 29.0768 34.1537 29.0768H5.07691C2.27301 29.0768 0 26.8038 0 23.9999V5.0769Z" fill="#FFD77B"/>
<path d="M5.19549 34.5225C4.11004 35.0779 2.88861 34.0606 3.23845 32.8926L5.05326 26.8335C5.22877 26.2476 5.76797 25.8462 6.37966 25.8462H16.4076C17.8617 25.8462 18.3328 27.8011 17.0383 28.4634L5.19549 34.5225Z" fill="#FFD77B"/>
<rect x="5.07715" y="12.9229" width="28.6153" height="4.61537" rx="2.30768" fill="#FFAE00"/>
<rect x="5.07715" y="6.46143" width="28.6153" height="4.61537" rx="2.30768" fill="#FFAE00"/>
<rect x="5.07715" y="18.9233" width="14.3076" height="4.61537" rx="2.30768" fill="#FFAE00"/>
<rect x="20.769" y="18.9233" width="4.61537" height="4.61537" rx="2.30768" fill="#FFAE00"/>
</svg>
