<svg width="18" height="18" viewBox="0 0 18 18" fill="none" xmlns="http://www.w3.org/2000/svg">
<path d="M2.25 5.83333C2.25 5.20479 2.25 4.89052 2.44526 4.69526C2.64052 4.5 2.95479 4.5 3.58333 4.5H12.0364C12.3857 4.5 12.5604 4.5 12.7078 4.57888C12.8552 4.65777 12.9521 4.80309 13.1458 5.09373L15.2569 8.2604C15.4959 8.6189 15.6154 8.79815 15.6154 9C15.6154 9.20185 15.4959 9.3811 15.2569 9.7396L13.1458 12.9063C12.9521 13.1969 12.8552 13.3422 12.7078 13.4211C12.5604 13.5 12.3857 13.5 12.0364 13.5H3.58333C2.95479 13.5 2.64052 13.5 2.44526 13.3047C2.25 13.1095 2.25 12.7952 2.25 12.1667V5.83333Z" stroke="#2C2C2C" stroke-width="1.33333"/>
<circle cx="11.25" cy="9" r="0.75" fill="#2C2C2C" stroke="#2C2C2C" stroke-width="1.33333"/>
</svg>
