<svg width="14" height="14" viewBox="0 0 14 14" fill="none" xmlns="http://www.w3.org/2000/svg">
<path d="M10.5003 4.08301H3.50033V11.6663C3.50033 11.8211 3.56183 11.9694 3.67122 12.0788C3.78062 12.1882 3.92895 12.2497 4.08366 12.2497H9.91699C10.0717 12.2497 10.22 12.1882 10.3294 12.0788C10.4388 11.9694 10.5003 11.8211 10.5003 11.6663V4.08301ZM5.25033 9.91634V6.41634C5.25033 6.09418 5.51149 5.83301 5.83366 5.83301C6.15583 5.83301 6.41699 6.09418 6.41699 6.41634V9.91634C6.41699 10.2385 6.15583 10.4997 5.83366 10.4997C5.51149 10.4997 5.25033 10.2385 5.25033 9.91634ZM7.58366 9.91634V6.41634C7.58366 6.09418 7.84483 5.83301 8.16699 5.83301C8.48916 5.83301 8.75033 6.09418 8.75033 6.41634V9.91634C8.75033 10.2385 8.48916 10.4997 8.16699 10.4997C7.84483 10.4997 7.58366 10.2385 7.58366 9.91634ZM8.75033 2.33301C8.75033 2.1783 8.68882 2.02997 8.57943 1.92057C8.47003 1.81118 8.3217 1.74967 8.16699 1.74967H5.83366C5.67895 1.74967 5.53062 1.81118 5.42122 1.92057C5.31183 2.02997 5.25033 2.1783 5.25033 2.33301V2.91634H8.75033V2.33301ZM9.91699 2.91634H12.2503C12.5725 2.91634 12.8337 3.17751 12.8337 3.49967C12.8337 3.82184 12.5725 4.08301 12.2503 4.08301H11.667V11.6663C11.667 12.1305 11.4825 12.5755 11.1543 12.9036C10.8261 13.2318 10.3811 13.4163 9.91699 13.4163H4.08366C3.61953 13.4163 3.17454 13.2318 2.84635 12.9036C2.51817 12.5755 2.33366 12.1305 2.33366 11.6663V4.08301H1.75033C1.42816 4.08301 1.16699 3.82184 1.16699 3.49967C1.16699 3.17751 1.42816 2.91634 1.75033 2.91634H4.08366V2.33301C4.08366 1.86888 4.26817 1.42389 4.59635 1.0957C4.92454 0.767515 5.36953 0.583008 5.83366 0.583008H8.16699C8.63112 0.583008 9.07611 0.767515 9.4043 1.0957C9.73249 1.42389 9.91699 1.86888 9.91699 2.33301V2.91634Z" fill="#383838"/>
</svg>
