<svg width="80" height="80" viewBox="0 0 80 80" fill="none" xmlns="http://www.w3.org/2000/svg">
<rect x="1.81818" y="1.81818" width="76.3636" height="76.3636" rx="38.1818" stroke="#BABABA" stroke-width="3.63636"/>
<path d="M21.8184 52.727V45.4543C21.8184 44.4501 22.6324 43.6361 23.6365 43.6361C24.6407 43.6361 25.4547 44.4501 25.4547 45.4543V52.727C25.4547 53.2092 25.6464 53.6716 25.9874 54.0125C26.3284 54.3535 26.7907 54.5452 27.2729 54.5452H52.7274C53.2097 54.5452 53.672 54.3535 54.013 54.0125C54.3539 53.6716 54.5456 53.2092 54.5456 52.727V45.4543C54.5456 44.4501 55.3597 43.6361 56.3638 43.6361C57.368 43.6361 58.182 44.4501 58.182 45.4543V52.727C58.182 54.1737 57.6069 55.5606 56.584 56.5836C55.5611 57.6065 54.1741 58.1816 52.7274 58.1816H27.2729C25.8263 58.1816 24.4393 57.6065 23.4164 56.5836C22.3934 55.5606 21.8184 54.1737 21.8184 52.727ZM38.182 45.4543V28.0253L32.1948 34.0125C31.4847 34.7226 30.3338 34.7226 29.6238 34.0125C28.9137 33.3025 28.9137 32.1516 29.6238 31.4415L38.7147 22.3506L38.8532 22.2263C39.5673 21.6439 40.62 21.6849 41.2857 22.3506L50.3766 31.4415C51.0866 32.1516 51.0866 33.3025 50.3766 34.0125C49.6666 34.7226 48.5156 34.7226 47.8056 34.0125L41.8184 28.0253V45.4543C41.8184 46.4585 41.0043 47.2725 40.0002 47.2725C38.996 47.2725 38.182 46.4585 38.182 45.4543Z" fill="#666666"/>
</svg>
